HIERARCHY
ROOT ui
{
	 OFFSET 0 0 0
	 CHANNELS 3 XPosition YPosition Z Position
	 EndSite
	 {
	 OFFSET 0 -1 0
	 }
}
ROOT li
{
	 OFFSET 0 0 0
	 CHANNELS 3 XPosition YPosition Z Position
	 EndSite
	 {
	 OFFSET 0 -1 0
	 }
}
ROOT ul
{
	 OFFSET 0 0 0
	 CHANNELS 3 XPosition YPosition Z Position
	 EndSite
	 {
	 OFFSET 0 -1 0
	 }
}
ROOT ll
{
	 OFFSET 0 0 0
	 CHANNELS 3 XPosition YPosition Z Position
	 EndSite
	 {
	 OFFSET 0 -1 0
	 }
}
ROOT tt
{
	 OFFSET 0 0 0
	 CHANNELS 3 XPosition YPosition Z Position
	 EndSite
	 {
	 OFFSET 0 -1 0
	 }
}
ROOT tb
{
	 OFFSET 0 0 0
	 CHANNELS 3 XPosition YPosition Z Position
	 EndSite
	 {
	 OFFSET 0 -1 0
	 }
}
ROOT td
{
	 OFFSET 0 0 0
	 CHANNELS 3 XPosition YPosition Z Position
	 EndSite
	 {
	 OFFSET 0 -1 0
	 }
}
ROOT v
{
	 OFFSET 0 0 0
	 CHANNELS 3 XPosition YPosition Z Position
	 EndSite
	 {
	 OFFSET 0 -1 0
	 }
}
ROOT bn
{
	 OFFSET 0 0 0
	 CHANNELS 3 XPosition YPosition Z Position
	 EndSite
	 {
	 OFFSET 0 -1 0
	 }
}
MOTION
Frames: 24
Frame Time: 0.002
0.0020872080326080323	0.0013841990232467652	0		0.45044110107421875	-2.35147509765625	0		-1.2281226806640626	-0.21256118774414062	0		-0.9163277587890625	-2.238214599609375	0		1.0898323974609374	-0.6786484985351563	0		2.4979150390625	0.3154361572265625	0		4.00990869140625	0.29788229370117186	0		5.1679091796875	-0.02166162109375	0		-0.23441134643554687	5.89032568359375	0		
0.009618679046630859	-0.001102655053138733	0		0.4681331481933594	-2.34321044921875	0		-1.16936083984375	-0.20517189025878907	0		-0.8527350463867187	-2.234950439453125	0		1.0893861083984375	-0.6789937133789062	0		2.50500048828125	0.29286062622070314	0		4.020496337890625	0.2971754150390625	0		5.1690751953125	-0.040201370239257815	0		-0.22036228942871094	5.90070703125	0		
0.006182036876678467	-0.004354459762573242	0		0.4396860656738281	-2.34290673828125	0		-1.1738046875	-0.2083575897216797	0		-0.8464853515625	-2.248397216796875	0		1.08899267578125	-0.6793546142578125	0		2.501102294921875	0.3125343017578125	0		4.024275146484375	0.30261386108398436	0		5.1645458984375	-0.04761817932128906	0		-0.2347632598876953	5.8897177734375	0		
0.004050035953521728	0.003349095106124878	0		0.48909033203125	-2.352408203125	0		-1.174128173828125	-0.20865614318847656	0		-0.8597396850585938	-2.24241064453125	0		1.0797237548828125	-0.6765272827148437	0		2.517723876953125	0.30871630859375	0		4.031128662109375	0.30896902465820314	0		5.17262890625	-0.07434056091308594	0		-0.23487110900878908	5.88938623046875	0		
-0.04924554061889649	0.002207089900970459	0		0.4378984985351563	-2.34561474609375	0		-1.17439892578125	-0.20897747802734376	0		-0.8513115844726562	-2.25294677734375	0		1.085297607421875	-0.683061279296875	0		2.4806181640625	0.3151192626953125	0		4.030875244140625	0.3084715881347656	0		5.15143701171875	-0.07139453125	0		-0.23588935852050782	5.8910556640625	0		
0.008460500717163085	-0.0025102100372314455	0		0.4603082580566406	-2.359539306640625	0		-1.167755126953125	-0.21548359680175783	0		-0.8695195922851563	-2.24989013671875	0		1.088134521484375	-0.6805501098632812	0		2.50927294921875	0.3079893798828125	0		4.045809814453125	0.3136111755371094	0		5.16387646484375	-0.0872392807006836	0		-0.22070675659179687	5.8993310546875	0		
0.014470115661621093	0.003939646005630493	0		0.44255303955078124	-2.339552978515625	0		-1.1707034912109375	-0.20679136657714844	0		-0.8544185791015625	-2.236623046875	0		1.0910322265625	-0.6780625610351563	0		2.515983642578125	0.3443559875488281	0		4.0491064453125	0.3320054931640625	0		5.16379296875	-0.08480516052246094	0		-0.2197257080078125	5.89690576171875	0		
0.003342952013015747	0.0017558939456939697	0		0.49015997314453125	-2.351108642578125	0		-1.177929931640625	-0.21303324890136718	0		-0.8566107788085937	-2.238990234375	0		1.07030419921875	-0.6620503540039062	0		2.493361083984375	0.3203620910644531	0		4.063073974609375	0.33313076782226564	0		5.15650048828125	-0.09422337341308594	0		-0.2215750732421875	5.89951953125	0		
0.00821328353881836	-0.0038272080421447754	0		0.44595965576171875	-2.356571533203125	0		-1.185108154296875	-0.22030805969238282	0		-0.849983642578125	-2.25259521484375	0		1.0730423583984374	-0.6726134033203125	0		2.47370849609375	0.3352872009277344	0		4.067184326171875	0.3374635009765625	0		5.1492099609375	-0.10666007232666015	0		-0.23566323852539062	5.88938232421875	0		
3.232409954071045E-4	-0.002145677089691162	0		0.43513064575195315	-2.349832275390625	0		-1.1850516357421874	-0.220782958984375	0		-0.8838502807617188	-2.24729296875	0		1.084807373046875	-0.6854158325195312	0		2.49647119140625	0.32119757080078126	0		4.0782509765625	0.33661044311523436	0		5.17184619140625	-0.12581140899658202	0		-0.23546287536621094	5.88888525390625	0		
0.003529947996139526	2.445649951696396E-4	0		0.4501683349609375	-2.352727783203125	0		-1.174689453125	-0.21153140258789063	0		-0.833935546875	-2.255969482421875	0		1.08799951171875	-0.6830487060546875	0		2.48733642578125	0.35182809448242186	0		4.095646240234375	0.3465874633789062	0		5.176142578125	-0.11955561828613281	0		-0.22097146606445311	5.89802392578125	0		
0.00862831974029541	-0.00544838285446167	0		0.4503391418457031	-2.353314697265625	0		-1.177546630859375	-0.21501707458496094	0		-0.8696837158203125	-2.252698486328125	0		1.0912708740234376	-0.6807181396484375	0		2.50927490234375	0.33869583129882813	0		4.1171640625	0.3584410400390625	0		5.18051708984375	-0.1133270492553711	0		-0.22064366149902342	5.89744970703125	0		
0.004038524150848388	-9.52817976474762E-4	0		0.43873516845703125	-2.34766455078125	0		-1.1844176025390625	-0.22245208740234376	0		-0.856153564453125	-2.241607421875	0		1.0678603515625	-0.6678021850585938	0		2.485020751953125	0.357609619140625	0		4.1257392578125	0.3695645751953125	0		5.18499267578125	-0.10612744140625	0		-0.234480224609375	5.887162109375	0		
0.004407522201538086	-0.001613358974456787	0		0.43802432250976564	-2.3503076171875	0		-1.18712060546875	-0.22602511596679686	0		-0.8829951782226563	-2.249626953125	0		1.0799149169921876	-0.6817529907226563	0		2.5081103515625	0.3443829650878906	0		4.130251953125	0.3747503662109375	0		5.1853603515625	-0.10686244201660157	0		-0.23500314331054686	5.88752783203125	0		
0.004849780082702637	-0.0023159658908843994	0		0.4472270812988281	-2.360221923828125	0		-1.1866810302734374	-0.22671347045898438	0		-0.8368475952148438	-2.262384033203125	0		1.0862081298828126	-0.6886061401367187	0		2.483725830078125	0.3512289123535156	0		4.13797509765625	0.38583261108398437	0		5.1857314453125	-0.11062625885009765	0		-0.22026199340820313	5.89650048828125	0		
0.005361367225646973	-0.003060631036758423	0		0.4518313903808594	-2.35606494140625	0		-1.2491778564453124	-0.22698335266113281	0		-0.9041068115234375	-2.2515439453125	0		1.0897821044921876	-0.6864315185546875	0		2.49526123046875	0.35120501708984375	0		4.1509052734375	0.4027652587890625	0		5.18933447265625	-0.10749072265625	0		-0.21774156188964844	5.8937119140625	0		
0.012098043441772462	0.003011847972869873	0		0.50528369140625	-2.36208447265625	0		-1.179459716796875	-0.22236593627929688	0		-0.8296594848632812	-2.258042236328125	0		1.0954910888671876	-0.6813429565429687	0		2.515252197265625	0.3679554138183594	0		4.16773486328125	0.4125758972167969	0		5.19825537109375	-0.09350243377685546	0		-0.2171254425048828	5.89292724609375	0		
0.0065697917938232426	-0.004673840999603271	0		0.443202392578125	-2.349452880859375	0		-1.181896728515625	-0.22611741638183594	0		-0.8449853515625	-2.256494384765625	0		1.0734293212890624	-0.6686435546875	0		2.482686279296875	0.35888717651367186	0		4.16769482421875	0.42575091552734373	0		5.19888818359375	-0.0943511962890625	0		-0.21842091369628908	5.89414697265625	0		
0.002368197917938232	-4.256359934806824E-4	0		0.49163433837890624	-2.361432861328125	0		-1.18428515625	-0.22991171264648438	0		-0.8443079223632812	-2.257359619140625	0		1.0858038330078126	-0.6827871704101562	0		2.492458251953125	0.3618065490722656	0		4.1766533203125	0.43668881225585937	0		5.2053115234375	-0.1063621826171875	0		-0.2177310791015625	5.89328076171875	0		
0.007968907833099365	-0.006445271015167236	0		0.4523428344726563	-2.362407470703125	0		-1.183566650390625	-0.23081785583496095	0		-0.8358216552734375	-2.26844873046875	0		1.083453857421875	-0.6866202392578125	0		2.477087646484375	0.35727740478515624	0		4.1946220703125	0.4463907165527344	0		5.2001474609375	-0.10212305450439453	0		-0.21701947021484375	5.89237548828125	0		
0.008712368965148926	-0.0073859128952026365	0		0.48108746337890623	-2.3639970703125	0		-1.17975341796875	-0.22883341979980468	0		-0.8689444580078125	-2.263603759765625	0		1.086571044921875	-0.671607666015625	0		2.48626904296875	0.3751549377441406	0		4.20680224609375	0.46420489501953127	0		5.2192119140625	-0.08946640014648438	0		-0.21629791259765624	5.89143408203125	0		
0.013814430236816406	0.006544015884399414	0		0.4481911926269531	-2.35018115234375	0		-1.178997314453125	-0.2298139190673828	0		-0.8508086547851562	-2.248981689453125	0		1.08219189453125	-0.6784563598632812	0		2.460888916015625	0.368802734375	0		4.21078564453125	0.47318548583984377	0		5.21831591796875	-0.07536476135253906	0		-0.21557980346679687	5.89045947265625	0		
0.00533429479598999	-0.00424573278427124	0		0.49876181030273437	-2.360337646484375	0		-1.1782457275390625	-0.2308255615234375	0		-0.8520855712890625	-2.251943359375	0		1.0829473876953124	-0.6794486083984375	0		2.496858154296875	0.3770069885253906	0		4.2198310546875	0.48503082275390624	0		5.240060546875	-0.07680911254882812	0		-0.21583395385742188	5.89147900390625	0		
-0.04390216827392578	-0.003111047029495239	0		0.4455982971191406	-2.35710546875	0		-1.180585205078125	-0.23479336547851562	0		-0.8554494018554688	-2.257884033203125	0		1.074753662109375	-0.6772543334960938	0		2.492443115234375	0.3701260986328125	0		4.214134765625	0.5092066345214844	0		5.22979150390625	-0.07752269744873047	0		-0.21614732360839845	5.89147412109375	0		
